<?xml version="1.0" encoding="UTF-8" standalone="no"?>
<!-- Created with Inkscape (http://www.inkscape.org/) -->

<svg
   xmlns:dc="http://purl.org/dc/elements/1.1/"
   xmlns:cc="http://creativecommons.org/ns#"
   xmlns:rdf="http://www.w3.org/1999/02/22-rdf-syntax-ns#"
   xmlns:svg="http://www.w3.org/2000/svg"
   xmlns="http://www.w3.org/2000/svg"
   xmlns:sodipodi="http://sodipodi.sourceforge.net/DTD/sodipodi-0.dtd"
   xmlns:inkscape="http://www.inkscape.org/namespaces/inkscape"
   width="744.09448819"
   height="1052.3622047"
   id="svg2"
   version="1.1"
   inkscape:version="0.48.4 r9939"
   sodipodi:docname="New document 1">
  <defs
     id="defs4">
    <marker
       inkscape:stockid="Arrow2Lstart"
       orient="auto"
       refY="0.0"
       refX="0.0"
       id="Arrow2Lstart"
       style="overflow:visible">
      <path
         id="path9268"
         style="fill-rule:evenodd;stroke-width:0.62500000;stroke-linejoin:round"
         d="M 8.7185878,4.0337352 L -2.2072895,0.016013256 L 8.7185884,-4.0017078 C 6.9730900,-1.6296469 6.9831476,1.6157441 8.7185878,4.0337352 z "
         transform="scale(1.1) translate(1,0)" />
    </marker>
    <marker
       inkscape:stockid="TriangleOutL"
       orient="auto"
       refY="0.0"
       refX="0.0"
       id="TriangleOutL"
       style="overflow:visible">
      <path
         id="path9392"
         d="M 5.77,0.0 L -2.88,5.0 L -2.88,-5.0 L 5.77,0.0 z "
         style="fill-rule:evenodd;stroke:#000000;stroke-width:1.0pt"
         transform="scale(0.8)" />
    </marker>
    <marker
       inkscape:stockid="Arrow2Lend"
       orient="auto"
       refY="0.0"
       refX="0.0"
       id="Arrow2Lend"
       style="overflow:visible;">
      <path
         id="path9271"
         style="fill-rule:evenodd;stroke-width:0.62500000;stroke-linejoin:round;"
         d="M 8.7185878,4.0337352 L -2.2072895,0.016013256 L 8.7185884,-4.0017078 C 6.9730900,-1.6296469 6.9831476,1.6157441 8.7185878,4.0337352 z "
         transform="scale(1.1) rotate(180) translate(1,0)" />
    </marker>
    <marker
       inkscape:stockid="TriangleInL"
       orient="auto"
       refY="0"
       refX="0"
       id="TriangleInL-02"
       style="overflow:visible">
      <path
         id="path6015-9"
         d="m 5.77,0 -8.65,5 0,-10 8.65,5 z"
         style="fill-rule:evenodd;stroke:#000000;stroke-width:1pt"
         transform="scale(-0.8,-0.8)"
         inkscape:connector-curvature="0" />
    </marker>
    <marker
       inkscape:stockid="TriangleInL"
       orient="auto"
       refY="0"
       refX="0"
       id="TriangleInL-02-4"
       style="overflow:visible">
      <path
         id="path6015-9-5"
         d="m 5.77,0 -8.65,5 0,-10 8.65,5 z"
         style="fill-rule:evenodd;stroke:#000000;stroke-width:1pt"
         transform="scale(-0.8,-0.8)"
         inkscape:connector-curvature="0" />
    </marker>
  </defs>
  <sodipodi:namedview
     id="base"
     pagecolor="#ffffff"
     bordercolor="#666666"
     borderopacity="1.0"
     inkscape:pageopacity="0.0"
     inkscape:pageshadow="2"
     inkscape:zoom="1.4"
     inkscape:cx="124.90456"
     inkscape:cy="511.08215"
     inkscape:document-units="px"
     inkscape:current-layer="layer1"
     showgrid="false"
     inkscape:snap-bbox="true"
     inkscape:bbox-paths="true"
     inkscape:bbox-nodes="true"
     inkscape:snap-bbox-edge-midpoints="true"
     inkscape:snap-bbox-midpoints="true"
     inkscape:object-paths="true"
     inkscape:snap-intersection-paths="true"
     inkscape:object-nodes="true"
     showguides="false"
     inkscape:snap-global="false"
     inkscape:window-width="1600"
     inkscape:window-height="838"
     inkscape:window-x="-8"
     inkscape:window-y="-8"
     inkscape:window-maximized="1">
    <inkscape:grid
       type="xygrid"
       id="grid11095" />
  </sodipodi:namedview>
  <metadata
     id="metadata7">
    <rdf:RDF>
      <cc:Work
         rdf:about="">
        <dc:format>image/svg+xml</dc:format>
        <dc:type
           rdf:resource="http://purl.org/dc/dcmitype/StillImage" />
        <dc:title></dc:title>
      </cc:Work>
    </rdf:RDF>
  </metadata>
  <g
     inkscape:label="Layer 1"
     inkscape:groupmode="layer"
     id="layer1">
    <path
       sodipodi:type="arc"
       style="fill:#2ca05a;fill-rule:evenodd;stroke:#000000;stroke-width:1;stroke-linecap:butt;stroke-linejoin:miter;stroke-miterlimit:4;stroke-opacity:1;stroke-dasharray:none"
       id="path7510"
       sodipodi:cx="279.28571"
       sodipodi:cy="219.50504"
       sodipodi:rx="76.428574"
       sodipodi:ry="68.571426"
       d="m 355.71428,219.50504 a 76.428574,68.571426 0 1 1 -152.85715,0 76.428574,68.571426 0 1 1 152.85715,0 z"
       transform="matrix(0.69892519,0,0,0.77901038,164.80019,141.36548)" />
    <path
       style="color:#000000;fill:none;stroke:#000000;stroke-width:5;stroke-linecap:butt;stroke-linejoin:miter;stroke-miterlimit:4;stroke-opacity:1;stroke-dasharray:none;stroke-dashoffset:0;marker:none;marker-start:url(#TriangleInL-02);visibility:visible;display:inline;overflow:visible;enable-background:accumulate"
       d="M -74.838236,228.6867 100.31039,62.022011"
       id="path5736-6-7-8-0-2-1"
       inkscape:connector-curvature="0" />
    <path
       sodipodi:type="arc"
       style="fill:#ff5555;fill-opacity:1;fill-rule:evenodd;stroke:#000000;stroke-width:1;stroke-linecap:butt;stroke-linejoin:miter;stroke-miterlimit:4;stroke-opacity:1;stroke-dasharray:none"
       id="path7510-1-7"
       sodipodi:cx="279.28571"
       sodipodi:cy="219.50504"
       sodipodi:rx="76.428574"
       sodipodi:ry="68.571426"
       d="m 355.71428,219.50504 a 76.428574,68.571426 0 1 1 -152.85715,0 76.428574,68.571426 0 1 1 152.85715,0 z"
       transform="matrix(0.69892519,0,0,0.77901038,-186.12946,360.36765)" />
    <path
       sodipodi:type="arc"
       style="fill:#ffe680;fill-rule:evenodd;stroke:#000000;stroke-width:1;stroke-linecap:butt;stroke-linejoin:miter;stroke-miterlimit:4;stroke-opacity:1;stroke-dasharray:none"
       id="path7510-1-7-4"
       sodipodi:cx="279.28571"
       sodipodi:cy="219.50504"
       sodipodi:rx="76.428574"
       sodipodi:ry="68.571426"
       d="m 355.71428,219.50504 a 76.428574,68.571426 0 1 1 -152.85715,0 76.428574,68.571426 0 1 1 152.85715,0 z"
       transform="matrix(0.69892519,0,0,0.77901038,165.51447,-76.491661)" />
    <path
       sodipodi:type="arc"
       style="fill:#ffe680;fill-rule:evenodd;stroke:#000000;stroke-width:1;stroke-linecap:butt;stroke-linejoin:miter;stroke-miterlimit:4;stroke-opacity:1;stroke-dasharray:none"
       id="path7510-1-7-4-0"
       sodipodi:cx="279.28571"
       sodipodi:cy="219.50504"
       sodipodi:rx="76.428574"
       sodipodi:ry="68.571426"
       d="m 355.71428,219.50504 a 76.428574,68.571426 0 1 1 -152.85715,0 76.428574,68.571426 0 1 1 152.85715,0 z"
       transform="matrix(0.69892519,0,0,0.77901038,-145.19981,141.36548)" />
    <path
       sodipodi:type="arc"
       style="fill:#2ca05a;fill-rule:evenodd;stroke:#000000;stroke-width:1;stroke-linecap:butt;stroke-linejoin:miter;stroke-miterlimit:4;stroke-opacity:1;stroke-dasharray:none"
       id="path7510-9"
       sodipodi:cx="279.28571"
       sodipodi:cy="219.50504"
       sodipodi:rx="76.428574"
       sodipodi:ry="68.571426"
       d="m 355.71428,219.50504 a 76.428574,68.571426 0 1 1 -152.85715,0 76.428574,68.571426 0 1 1 152.85715,0 z"
       transform="matrix(0.69892519,0,0,0.77901038,370.51447,147.07977)" />
    <path
       sodipodi:type="arc"
       style="fill:#2ca05a;fill-rule:evenodd;stroke:#000000;stroke-width:1;stroke-linecap:butt;stroke-linejoin:miter;stroke-miterlimit:4;stroke-opacity:1;stroke-dasharray:none"
       id="path7510-9-4"
       sodipodi:cx="279.28571"
       sodipodi:cy="219.50504"
       sodipodi:rx="76.428574"
       sodipodi:ry="68.571426"
       d="m 355.71428,219.50504 a 76.428574,68.571426 0 1 1 -152.85715,0 76.428574,68.571426 0 1 1 152.85715,0 z"
       transform="matrix(0.69892519,0,0,0.77901038,264.80018,344.22262)" />
    <path
       sodipodi:type="arc"
       style="fill:#2ca05a;fill-rule:evenodd;stroke:#000000;stroke-width:1;stroke-linecap:butt;stroke-linejoin:miter;stroke-miterlimit:4;stroke-opacity:1;stroke-dasharray:none"
       id="path7510-9-4-8"
       sodipodi:cx="279.28571"
       sodipodi:cy="219.50504"
       sodipodi:rx="76.428574"
       sodipodi:ry="68.571426"
       d="m 355.71428,219.50504 a 76.428574,68.571426 0 1 1 -152.85715,0 76.428574,68.571426 0 1 1 152.85715,0 z"
       transform="matrix(0.69892519,0,0,0.77901038,467.65733,332.79406)" />
    <path
       sodipodi:type="arc"
       style="fill:#2ca05a;fill-rule:evenodd;stroke:#000000;stroke-width:1;stroke-linecap:butt;stroke-linejoin:miter;stroke-miterlimit:4;stroke-opacity:1;stroke-dasharray:none"
       id="path7510-9-4-82"
       sodipodi:cx="279.28571"
       sodipodi:cy="219.50504"
       sodipodi:rx="76.428574"
       sodipodi:ry="68.571426"
       d="m 355.71428,219.50504 a 76.428574,68.571426 0 1 1 -152.85715,0 76.428574,68.571426 0 1 1 152.85715,0 z"
       transform="matrix(0.69892519,0,0,0.77901038,41.943038,354.22262)" />
    <path
       style="color:#000000;fill:none;stroke:#000000;stroke-width:5;stroke-linecap:butt;stroke-linejoin:miter;stroke-miterlimit:4;stroke-opacity:1;stroke-dasharray:none;stroke-dashoffset:0;marker:none;marker-start:url(#TriangleInL-02);visibility:visible;display:inline;overflow:visible;enable-background:accumulate"
       d="M 45.785657,731.31093 C 30.433667,723.94761 -193.23479,721.34388 -122.41317,617.07811 l 71.204594,-69.57473"
       id="path5736-6-7-8-0-2-1-5"
       inkscape:connector-curvature="0"
       sodipodi:nodetypes="ccc" />
  </g>
</svg>
